<?xml version="1.0" encoding="UTF-8" standalone="no"?>
<svg
   xmlns:dc="http://purl.org/dc/elements/1.1/"
   xmlns:cc="http://creativecommons.org/ns#"
   xmlns:rdf="http://www.w3.org/1999/02/22-rdf-syntax-ns#"
   xmlns:svg="http://www.w3.org/2000/svg"
   xmlns="http://www.w3.org/2000/svg"
   viewBox="0 0 2893.3333 2552.9414"
   height="2552.9414"
   width="2893.3333"
   xml:space="preserve"
   id="svg2"
   version="1.1"><metadata
     id="metadata8"><rdf:RDF><cc:Work
         rdf:about=""><dc:format>image/svg+xml</dc:format><dc:type
           rdf:resource="http://purl.org/dc/dcmitype/StillImage" /></cc:Work></rdf:RDF></metadata><defs
     id="defs6"><clipPath
       id="clipPath20"
       clipPathUnits="userSpaceOnUse"><path
         id="path18"
         d="M 0,0 H 2170 V 3931 H 0 Z" /></clipPath><clipPath
       id="clipPath30"
       clipPathUnits="userSpaceOnUse"><path
         id="path28"
         d="M 0,3931 H 2170 V 0 H 0 Z" /></clipPath><clipPath
       id="clipPath40"
       clipPathUnits="userSpaceOnUse"><path
         id="path38"
         d="M 0,3931 H 2170 V 0 H 0 Z" /></clipPath><clipPath
       id="clipPath52"
       clipPathUnits="userSpaceOnUse"><path
         id="path50"
         d="M 0,3931 H 2170 V 0 H 0 Z" /></clipPath><clipPath
       id="clipPath152"
       clipPathUnits="userSpaceOnUse"><path
         id="path150"
         d="M 0,3931 H 2170 V 0 H 0 Z" /></clipPath><clipPath
       id="clipPath192"
       clipPathUnits="userSpaceOnUse"><path
         id="path190"
         d="M 350.941,2575.115 551.982,777.323 1814.119,918.464 1613.078,2716.255 Z" /></clipPath></defs><g
     transform="matrix(1.3333333,0,0,-1.3333333,0,2552.9413)"
     id="g10"><g
       transform="translate(0,-1152.222)"
       id="g12"><g
         id="g14"><g
           clip-path="url(#clipPath20)"
           id="g16"><path
             id="path22"
             style="fill:#f7c037;fill-opacity:1;fill-rule:nonzero;stroke:none"
             d="M 0,0 H 2170 V 3897.355 H 0 Z" /><g
             id="g24"><g
               clip-path="url(#clipPath30)"
               id="g26"><path
                 id="path32"
                 style="fill:none;stroke:#000000;stroke-width:1;stroke-linecap:butt;stroke-linejoin:miter;stroke-miterlimit:10;stroke-dasharray:none;stroke-opacity:1"
                 d="M 2170,0 H 0 v 3897.355 h 2170 z" /></g></g><g
             id="g34"><g
               clip-path="url(#clipPath40)"
               id="g36"><g
                 transform="translate(1049.1548,1359.9443)"
                 id="g42"><path
                   id="path44"
                   style="fill:#ffffff;fill-opacity:1;fill-rule:nonzero;stroke:none"
                   d="m 0,0 c -378.309,0 -684.988,306.68 -684.988,684.988 0,378.308 306.679,684.988 684.988,684.988 378.308,0 684.988,-306.68 684.988,-684.988 C 684.988,306.68 378.308,0 0,0 m 725.936,760.624 c -3.775,36.46 -10.239,72.123 -19.196,106.783 -6.381,24.694 -14.034,48.876 -22.871,72.481 -14.202,37.938 -31.475,74.374 -51.525,109.004 -13.059,22.557 -27.292,44.349 -42.62,65.29 -28.301,38.664 -60.328,74.426 -95.549,106.768 -12.33,11.322 -25.05,22.225 -38.14,32.685 -49.087,39.223 -103.357,72.228 -161.626,97.815 -7.785,3.418 -15.644,6.701 -23.57,9.852 -35.83,14.246 -73.058,25.728 -111.423,34.182 -50.664,11.165 -103.305,17.059 -157.324,17.059 -56.02,0 -110.559,-6.337 -162.946,-18.32 -33.478,-7.658 -66.073,-17.626 -97.614,-29.724 -9.114,-3.496 -18.137,-7.172 -27.07,-11.02 -58.978,-25.403 -113.927,-58.376 -163.621,-97.703 -12.931,-10.234 -25.511,-20.891 -37.71,-31.963 -35.682,-32.388 -68.127,-68.276 -96.811,-107.113 -15.429,-20.891 -29.768,-42.637 -42.932,-65.154 -20.22,-34.587 -37.675,-70.987 -52.045,-108.906 -9.016,-23.79 -16.813,-48.18 -23.331,-73.086 -9.018,-34.46 -15.572,-69.915 -19.465,-106.169 -2.773,-25.82 -4.209,-52.04 -4.209,-78.597 0,-8.683 0.162,-17.328 0.464,-25.937 1.222,-34.897 4.893,-69.171 10.862,-102.651 5.208,-29.214 12.168,-57.82 20.751,-85.715 7.493,-24.354 16.231,-48.163 26.138,-71.354 16.54,-38.716 36.34,-75.705 59.054,-110.625 14.399,-22.138 29.969,-43.442 46.623,-63.826 28.941,-35.426 61.153,-68.074 96.178,-97.482 17.484,-14.68 35.666,-28.557 54.494,-41.567 41.797,-28.879 86.766,-53.489 134.274,-73.22 20.426,-8.482 41.315,-16.072 62.63,-22.697 68.328,-21.239 140.971,-32.681 216.286,-32.681 75.285,0 147.901,11.433 216.204,32.655 22.187,6.894 43.914,14.828 65.134,23.731 46.392,19.463 90.34,43.593 131.258,71.805 19.653,13.55 38.61,28.036 56.801,43.403 34.019,28.741 65.359,60.553 93.606,94.998 17.175,20.942 33.2,42.86 47.988,65.657 22.125,34.112 41.472,70.192 57.719,107.921 10.244,23.786 19.258,48.227 26.957,73.244 8.369,27.196 15.188,55.07 20.352,83.522 6.154,33.899 9.962,68.616 11.244,103.978 0.322,8.907 0.492,17.855 0.492,26.841 0,25.61 -1.33,50.908 -3.911,75.836" /></g></g></g><g
             id="g46"><g
               clip-path="url(#clipPath52)"
               id="g48"><g
                 transform="translate(1671.9775,1552.7979)"
                 id="g54"><path
                   id="path56"
                   style="fill:#231f20;fill-opacity:1;fill-rule:nonzero;stroke:none"
                   d="m 0,0 c -1.046,-1.613 -2.087,-3.243 -3.119,-4.895 0,0 2.86,-0.78 7.995,-1.925 0.599,-0.982 1.187,-2.006 1.77,-3.081 0,0 0.038,0.926 0.06,2.679 32.229,-6.98 137.107,-24.426 212.525,23.835 90.127,57.673 84.985,86.833 120.235,95.635 0,0 -2.865,1.011 -8.113,2.507 2.05,0.814 4.242,1.538 6.625,2.168 0,0 -207.791,70.235 -331.625,-107.48 C 5.361,29.88 1.865,64.494 -9.74,103.429 -24.527,80.632 -40.553,58.714 -57.728,37.771 -28.06,17.678 -11.844,14.09 0,0" /></g><g
                 transform="translate(1787.124,1741.8115)"
                 id="g58"><path
                   id="path60"
                   style="fill:#231f20;fill-opacity:1;fill-rule:nonzero;stroke:none"
                   d="M 0,0 C -3.15,12.339 -14.511,51.917 -40.21,95.58 -47.909,70.563 -56.923,46.122 -67.167,22.336 -32.455,11.6 -17.207,13.818 -0.904,-2.077 c -0.17,-0.394 -0.343,-0.779 -0.512,-1.175 0,0 0.638,-0.054 1.813,-0.132 0.187,-0.192 0.374,-0.379 0.561,-0.576 0,0 -0.043,0.192 -0.124,0.548 17.962,-1.142 139.915,-6.169 213.271,61.363 79.334,73.035 69.489,100.837 102.771,115.852 C 316.876,173.803 92.048,210.006 0,0" /></g><g
                 transform="translate(1847.5273,1913.8037)"
                 id="g62"><path
                   id="path64"
                   style="fill:#231f20;fill-opacity:1;fill-rule:nonzero;stroke:none"
                   d="m 0,0 c 0,0 132.477,35.139 184.882,131.205 52.404,96.067 34.476,119.013 61.304,144.536 C 246.186,275.741 20,233.072 0,0" /></g><g
                 transform="translate(1847.5273,1915.3477)"
                 id="g66"><path
                   id="path68"
                   style="fill:#231f20;fill-opacity:1;fill-rule:nonzero;stroke:none"
                   d="M 0,0 C 0,0 -23.83,58.734 -69.018,109.543 -70.3,74.182 -74.107,39.465 -80.262,5.565 -55.944,0.241 -29.248,-1.972 0,0" /></g><g
                 transform="translate(1860.6455,2150.0747)"
                 id="g70"><path
                   id="path72"
                   style="fill:#231f20;fill-opacity:1;fill-rule:nonzero;stroke:none"
                   d="m 0,0 c 0.255,-1.097 0.505,-2.192 0.771,-3.294 0,0 113.866,79.17 132.909,188.008 19.043,108.838 -5.131,124.258 12.102,157.658 0,0 -196.784,-116.983 -146.249,-340.377 -7.902,8.85 -48.781,52.917 -104.284,82.281 8.957,-34.66 15.421,-70.322 19.196,-106.783 C -58.573,-19.946 -29.978,-12.924 0,0" /></g><g
                 transform="translate(1871.8701,2563.4966)"
                 id="g74"><path
                   id="path76"
                   style="fill:#231f20;fill-opacity:1;fill-rule:nonzero;stroke:none"
                   d="m 0,0 c -19.315,108.785 -47.152,114.141 -42.441,151.787 0,0 -146.197,-185.802 -17.608,-377.135 0,0 79.365,116.563 60.049,225.348" /></g><g
                 transform="translate(1811.748,2338.0874)"
                 id="g78"><path
                   id="path80"
                   style="fill:#231f20;fill-opacity:1;fill-rule:nonzero;stroke:none"
                   d="M 0,0 C 0,0 -57.175,54.049 -130.249,77.749 -110.199,43.119 -92.926,6.683 -78.725,-31.255 -53.394,-25.46 -27.046,-15.45 0,0" /></g><g
                 transform="translate(1638.8789,2481.126)"
                 id="g82"><path
                   id="path84"
                   style="fill:#231f20;fill-opacity:1;fill-rule:nonzero;stroke:none"
                   d="m 0,0 c 21.338,7.462 43.18,18.136 65.284,32.744 0,0 -0.612,0.508 -1.768,1.426 3.806,11.16 45.321,137.866 1.672,233.155 -45.696,99.757 -73.902,97.33 -78.713,134.962 0,0 -92.148,-212.816 69.283,-362.198 C 32.962,56.917 -27.929,97.541 -95.549,106.768 -60.328,74.426 -28.301,38.665 0,0" /></g><g
                 transform="translate(1562.9141,2653.1812)"
                 id="g86"><path
                   id="path88"
                   style="fill:#231f20;fill-opacity:1;fill-rule:nonzero;stroke:none"
                   d="m 0,0 c 0,0 9.387,142.847 -61.421,224.942 -70.808,82.095 -97.201,71.39 -111.995,106.05 0,0 -24.864,-186.9 111.753,-293.961 -41.192,20.078 -97.685,38.967 -152.52,29.134 -1.752,-0.314 -3.47,-0.632 -5.168,-0.952 58.27,-25.587 112.539,-58.592 161.626,-97.815 C -38.714,-24.573 -19.409,-13.885 0,0" /></g><g
                 transform="translate(1417.4297,2739.396)"
                 id="g90"><path
                   id="path92"
                   style="fill:#231f20;fill-opacity:1;fill-rule:nonzero;stroke:none"
                   d="m 0,0 c 0,0 -78.052,117.532 -182.321,135.081 -104.269,17.549 -118.45,-8.114 -150.698,9.202 0,0 42.878,-75.262 124.16,-121.25 38.365,-8.455 75.593,-19.937 111.423,-34.183 C -67.606,-13.217 -35.1,-10.191 0,0" /></g><g
                 transform="translate(594.9746,1414.8379)"
                 id="g94"><path
                   id="path96"
                   style="fill:#231f20;fill-opacity:1;fill-rule:nonzero;stroke:none"
                   d="M 0,0 C 16.352,11.911 30.626,24.568 43.082,37.737 24.254,50.747 6.072,64.624 -11.412,79.305 -8.895,33.712 0,0 0,0" /></g><g
                 transform="translate(425.6699,1564.8818)"
                 id="g98"><path
                   id="path100"
                   style="fill:#231f20;fill-opacity:1;fill-rule:nonzero;stroke:none"
                   d="m 0,0 c -123.835,177.715 -331.625,107.479 -331.625,107.479 2.383,-0.629 4.574,-1.353 6.625,-2.167 -5.248,-1.497 -8.113,-2.507 -8.113,-2.507 35.249,-8.802 30.107,-37.962 120.234,-95.635 75.418,-48.262 180.297,-30.816 212.525,-23.835 0.023,-1.753 0.062,-2.68 0.062,-2.68 0.581,1.075 1.17,2.1 1.769,3.081 5.134,1.146 7.995,1.926 7.995,1.926 -1.033,1.651 -2.074,3.281 -3.12,4.895 C 17.878,4.267 33.543,8.034 61.715,26.742 45.061,47.127 29.491,68.431 15.092,90.568 4.285,53.03 0.962,19.837 0,0" /></g><g
                 transform="translate(316.8755,1744.4521)"
                 id="g102"><path
                   id="path104"
                   style="fill:#231f20;fill-opacity:1;fill-rule:nonzero;stroke:none"
                   d="m 0,0 c -92.046,210.006 -316.875,173.803 -316.875,173.803 33.282,-15.015 23.436,-42.817 102.77,-115.852 73.356,-67.532 195.31,-62.505 213.272,-61.363 -0.082,-0.356 -0.124,-0.548 -0.124,-0.548 0.187,0.197 0.373,0.384 0.56,0.576 1.176,0.078 1.814,0.132 1.814,0.132 -0.169,0.396 -0.342,0.781 -0.512,1.175 15.932,15.534 30.857,13.767 63.928,23.7 -9.908,23.191 -18.645,47 -26.139,71.355 C 14.063,50.353 3.088,12.094 0,0" /></g><g
                 transform="translate(256.4722,1916.4443)"
                 id="g106"><path
                   id="path108"
                   style="fill:#231f20;fill-opacity:1;fill-rule:nonzero;stroke:none"
                   d="m 0,0 c -20,233.072 -246.185,275.741 -246.185,275.741 26.827,-25.523 8.899,-48.469 61.304,-144.536 C -132.477,35.139 0,0 0,0" /></g><g
                 transform="translate(256.4722,1917.9883)"
                 id="g110"><path
                   id="path112"
                   style="fill:#231f20;fill-opacity:1;fill-rule:nonzero;stroke:none"
                   d="M 0,0 C 28.483,-1.92 54.544,0.131 78.346,5.156 72.377,38.636 68.707,72.91 67.484,107.807 23.291,57.406 0,0 0,0" /></g><g
                 transform="translate(243.8208,2154.71)"
                 id="g114"><path
                   id="path116"
                   style="fill:#231f20;fill-opacity:1;fill-rule:nonzero;stroke:none"
                   d="m 0,0 c 50.536,223.395 -146.249,340.377 -146.249,340.377 17.234,-33.399 -6.94,-48.82 12.103,-157.658 C -115.104,73.882 -1.238,-5.289 -1.238,-5.289 c 0.267,1.102 0.517,2.197 0.771,3.294 C 29.065,-14.726 57.254,-21.726 83.881,-24.38 87.774,11.873 94.328,47.329 103.346,81.789 48.319,52.426 7.858,8.801 0,0" /></g><g
                 transform="translate(274.5713,2717.9238)"
                 id="g118"><path
                   id="path120"
                   style="fill:#231f20;fill-opacity:1;fill-rule:nonzero;stroke:none"
                   d="M 0,0 C 4.711,-37.646 -23.125,-43.001 -42.441,-151.787 -61.757,-260.572 17.607,-377.135 17.607,-377.135 146.196,-185.801 0,0 0,0" /></g><g
                 transform="translate(292.2515,2340.7275)"
                 id="g122"><path
                   id="path124"
                   style="fill:#231f20;fill-opacity:1;fill-rule:nonzero;stroke:none"
                   d="M 0,0 C 26.876,-15.352 53.062,-25.333 78.246,-31.144 92.617,6.775 110.071,43.176 130.292,77.763 57.197,54.07 0,0 0,0" /></g><g
                 transform="translate(562.2861,2590.7573)"
                 id="g126"><path
                   id="path128"
                   style="fill:#231f20;fill-opacity:1;fill-rule:nonzero;stroke:none"
                   d="M 0,0 C -68.265,-8.792 -129.946,-49.94 -152.923,-66.902 8.508,82.48 -83.64,295.296 -83.64,295.296 c -4.811,-37.632 -33.017,-35.205 -78.713,-134.962 -43.649,-95.289 -2.134,-221.996 1.672,-233.155 -1.156,-0.917 -1.769,-1.426 -1.769,-1.426 22.228,-14.689 44.189,-25.399 65.639,-32.866 C -68.127,-68.276 -35.683,-32.388 0,0" /></g><g
                 transform="translate(755.2686,2721.9863)"
                 id="g130"><path
                   id="path132"
                   style="fill:#231f20;fill-opacity:1;fill-rule:nonzero;stroke:none"
                   d="m 0,0 c -54.835,9.833 -111.327,-9.056 -152.52,-29.134 136.618,107.061 111.753,293.961 111.753,293.961 -14.794,-34.66 -41.187,-23.955 -111.995,-106.05 -70.807,-82.094 -61.42,-224.942 -61.42,-224.942 19.812,-14.173 39.516,-25.019 58.91,-33.101 49.693,39.327 104.642,72.3 163.621,97.703 C 5.634,-1.035 2.861,-0.513 0,0" /></g><g
                 transform="translate(1019.5894,2886.3198)"
                 id="g134"><path
                   id="path136"
                   style="fill:#231f20;fill-opacity:1;fill-rule:nonzero;stroke:none"
                   d="m 0,0 c -32.249,-17.316 -46.429,8.347 -150.698,-9.203 -104.269,-17.548 -182.321,-135.081 -182.321,-135.081 37.739,-10.957 72.478,-13.627 104.116,-10.593 31.541,12.099 64.137,22.067 97.614,29.725 C -45.388,-79.664 0,0 0,0" /></g><g
                 transform="translate(1767.2656,1920.9131)"
                 id="g138"><path
                   id="path140"
                   style="fill:none;stroke:#ffffff;stroke-width:1;stroke-linecap:butt;stroke-linejoin:miter;stroke-miterlimit:10;stroke-dasharray:none;stroke-opacity:1"
                   d="m 0,0 c 6.154,33.899 9.962,68.616 11.244,103.978 0.322,8.908 0.492,17.855 0.492,26.841 0,25.61 -1.33,50.909 -3.911,75.836 -3.775,36.461 -10.239,72.123 -19.196,106.783 -6.381,24.694 -14.034,48.876 -22.871,72.481 -14.201,37.938 -31.475,74.374 -51.525,109.004 -13.059,22.557 -27.292,44.349 -42.62,65.29 -28.3,38.664 -60.328,74.426 -95.549,106.768 -12.33,11.322 -25.049,22.226 -38.14,32.686 -49.087,39.222 -103.357,72.228 -161.626,97.814 -7.785,3.418 -15.644,6.701 -23.569,9.852 -35.831,14.246 -73.059,25.728 -111.424,34.183 -50.663,11.164 -103.305,17.058 -157.324,17.058 -56.02,0 -110.559,-6.337 -162.946,-18.32 -33.477,-7.657 -66.073,-17.626 -97.614,-29.724 -9.113,-3.496 -18.137,-7.172 -27.069,-11.02 -58.979,-25.403 -113.928,-58.376 -163.622,-97.703 -12.931,-10.233 -25.511,-20.891 -37.709,-31.963 -35.683,-32.388 -68.128,-68.276 -96.812,-107.113 -15.429,-20.891 -29.768,-42.637 -42.932,-65.154 -20.22,-34.587 -37.674,-70.987 -52.045,-108.906 -9.016,-23.79 -16.813,-48.179 -23.331,-73.086 -9.018,-34.46 -15.571,-69.915 -19.464,-106.168 -2.773,-25.821 -4.21,-52.041 -4.21,-78.598 0,-8.682 0.163,-17.327 0.464,-25.937 1.223,-34.897 4.893,-69.171 10.862,-102.651 5.208,-29.213 12.168,-57.82 20.751,-85.714 7.493,-24.355 16.231,-48.163 26.138,-71.355 16.54,-38.716 36.34,-75.705 59.055,-110.625 14.399,-22.138 29.968,-43.441 46.622,-63.826 28.942,-35.426 61.153,-68.073 96.178,-97.482 17.484,-14.68 35.666,-28.557 54.494,-41.567 41.797,-28.879 86.767,-53.489 134.274,-73.22 20.426,-8.482 41.315,-16.072 62.63,-22.697 68.328,-21.239 140.971,-32.681 216.286,-32.681 75.286,0 147.901,11.433 216.205,32.656 22.186,6.893 43.914,14.827 65.133,23.73 46.392,19.463 90.34,43.593 131.258,71.805 19.653,13.551 38.611,28.036 56.801,43.403 34.019,28.741 65.359,60.553 93.606,94.998 17.175,20.943 33.201,42.861 47.988,65.657 22.126,34.112 41.472,70.192 57.719,107.921 10.245,23.787 19.258,48.227 26.957,73.245 C -11.982,-56.326 -5.164,-28.452 0,0 Z" /></g><g
                 transform="translate(1734.1426,2051.9321)"
                 id="g142"><path
                   id="path144"
                   style="fill:none;stroke:#020202;stroke-width:36;stroke-linecap:butt;stroke-linejoin:miter;stroke-miterlimit:10;stroke-dasharray:none;stroke-opacity:1"
                   d="m 0,0 c 0,-378.308 -306.68,-684.988 -684.988,-684.988 -378.308,0 -684.988,306.68 -684.988,684.988 0,378.309 306.68,684.988 684.988,684.988 C -306.68,684.988 0,378.309 0,0 Z" /></g></g></g><g
             id="g146"><g
               clip-path="url(#clipPath152)"
               id="g148"><g
                 transform="translate(413.2148,1388.4883)"
                 id="g154"><path
                   id="path156"
                   style="fill:#ffffff;fill-opacity:1;fill-rule:nonzero;stroke:none"
                   d="M 0,0 C 0,0 431.151,78.666 679.201,75.406 927.251,72.147 1353.92,-3.699 1353.92,-3.699 l 0.085,175.952 c 0,0 -302.6,81.621 -674.718,81.8 C 307.05,254.232 0.091,188.472 0.091,188.472 Z" /></g><g
                 transform="translate(413.2148,1388.4883)"
                 id="g158"><path
                   id="path160"
                   style="fill:none;stroke:#000000;stroke-width:3;stroke-linecap:butt;stroke-linejoin:miter;stroke-miterlimit:10;stroke-dasharray:none;stroke-opacity:1"
                   d="M 0,0 C 0,0 431.151,78.666 679.201,75.406 927.251,72.147 1353.92,-3.699 1353.92,-3.699 l 0.085,175.952 c 0,0 -302.6,81.621 -674.718,81.8 C 307.05,254.232 0.091,188.472 0.091,188.472 Z" /></g></g></g><text
             id="text164"
             style="font-variant:normal;font-weight:normal;font-stretch:normal;font-size:144.86582947px;font-family:Silom;-inkscape-font-specification:Silom;writing-mode:lr-tb;fill:#231f20;fill-opacity:1;fill-rule:nonzero;stroke:none"
             transform="matrix(0.98951842,0.14440673,0.14440673,-0.98951842,728.9324,1464.8865)"><tspan
               id="tspan162"
               y="0"
               x="0">I</tspan></text>
<text
             id="text168"
             style="font-variant:normal;font-weight:normal;font-stretch:normal;font-size:144.86579895px;font-family:Silom;-inkscape-font-specification:Silom;writing-mode:lr-tb;fill:#231f20;fill-opacity:1;fill-rule:nonzero;stroke:none"
             transform="matrix(0.99566844,0.09297502,0.09297502,-0.99566844,842.5396,1480.8972)"><tspan
               id="tspan166"
               y="0"
               x="0">N</tspan></text>
<text
             id="text172"
             style="font-variant:normal;font-weight:normal;font-stretch:normal;font-size:144.86584473px;font-family:Silom;-inkscape-font-specification:Silom;writing-mode:lr-tb;fill:#231f20;fill-opacity:1;fill-rule:nonzero;stroke:none"
             transform="matrix(0.99941435,0.03421925,0.03421925,-0.99941435,992.7803,1493.2419)"><tspan
               id="tspan170"
               y="0"
               x="0">T</tspan></text>
<text
             id="text176"
             style="font-variant:normal;font-weight:normal;font-stretch:normal;font-size:144.86581421px;font-family:Silom;-inkscape-font-specification:Silom;writing-mode:lr-tb;fill:#231f20;fill-opacity:1;fill-rule:nonzero;stroke:none"
             transform="matrix(0.99943529,-0.03360213,-0.03360213,-0.99943529,1107.08,1496.1685)"><tspan
               id="tspan174"
               y="0"
               x="0">E</tspan></text>
<text
             id="text180"
             style="font-variant:normal;font-weight:normal;font-stretch:normal;font-size:144.86582947px;font-family:Silom;-inkscape-font-specification:Silom;writing-mode:lr-tb;fill:#231f20;fill-opacity:1;fill-rule:nonzero;stroke:none"
             transform="matrix(0.99439742,-0.10570609,-0.10570609,-0.99439742,1233.1941,1490.4899)"><tspan
               id="tspan178"
               y="0"
               x="0">R</tspan></text>
<text
             id="text184"
             style="font-variant:normal;font-weight:normal;font-stretch:normal;font-size:144.86582947px;font-family:Silom;-inkscape-font-specification:Silom;writing-mode:lr-tb;fill:#231f20;fill-opacity:1;fill-rule:nonzero;stroke:none"
             transform="matrix(0.98604001,-0.16650856,-0.16650856,-0.98604001,1370.9056,1474.2657)"><tspan
               id="tspan182"
               y="0"
               x="0">S</tspan></text>
<g
             id="g186"><g
               clip-path="url(#clipPath192)"
               id="g188"><g
                 transform="matrix(2.1202555,0.2371008,0.2387971,-2.1354239,0,0)"
                 id="g194"><g
                   transform="translate(524.2788,-1040.2211)"
                   id="g196"><path
                     id="path198"
                     style="fill:#231f20;fill-opacity:1;fill-rule:nonzero;stroke:none"
                     d="m 0,0 c 0,0 -15.87,9.865 -16.299,16.299 -0.429,6.433 7.292,12.438 11.152,12.867 3.86,0.429 6.005,-4.718 10.294,-3.86 4.289,0.858 3.002,4.769 6.434,3.885 3.431,-0.883 1.286,-9.89 3.002,-12.035 1.715,-2.144 5.146,0.429 7.291,3.432 2.145,3.002 15.87,27.879 27.879,30.452 4.289,2.145 -16.727,66.052 -9.007,80.206 7.721,14.154 13.725,11.581 15.87,18.872 2.144,7.292 -3.003,23.161 -3.003,23.161 0,0 15.766,1.675 18.573,3.124 2.807,1.448 20.643,3.44 25.079,3.802 4.437,0.362 14.306,9.416 15.663,8.42 1.359,-0.996 8.33,-14.124 0.543,-39.656 -1.9,-5.975 5.252,-24.355 -26.708,-35.038 -12.495,-4.527 -13.581,-16.706 -13.581,-19.58 0,-2.874 2.082,-22.249 0.815,-31.484 -1.268,-9.235 7.424,-25.17 4.165,-28.429 -3.26,-3.259 -4.346,-1.901 -5.795,-2.626 C 70.918,31.088 64.038,25.565 47.288,18.775 30.538,11.984 23.295,5.465 22.027,4.832 20.76,4.198 15.961,3.383 12.883,3.655 9.805,3.926 7.669,1.778 0,0" /></g></g><g
                 transform="matrix(2.1202555,0.2371008,0.2387971,-2.1354239,0,0)"
                 id="g200"><g
                   transform="translate(570.6045,-976.6088)"
                   id="g202"><path
                     id="path204"
                     style="fill:#231f20;fill-opacity:1;fill-rule:nonzero;stroke:none"
                     d="m 0,0 c 0,0 -18.982,-8.987 -25.335,16.116 -6.354,25.103 17.665,25.49 17.665,25.49 z" /></g></g><g
                 transform="matrix(2.1202555,0.2371008,0.2387971,-2.1354239,0,0)"
                 id="g206"><g
                   transform="translate(600.2324,-974.8754)"
                   id="g208"><path
                     id="path210"
                     style="fill:#231f20;fill-opacity:1;fill-rule:nonzero;stroke:none"
                     d="M 0,0 C 0,0 4.001,0.817 5.023,0.378 6.047,-0.06 7.069,2.059 6.412,3.374 5.755,4.689 5.023,8.416 4.658,9.804 4.293,11.192 1.671,29.644 2.927,33.84 c 2.601,8.693 7.942,12.863 7.942,12.863 0,0 -6.154,-1.311 -11.205,-13.525 C -1.153,31.201 0.29,8.095 0.29,6.195 0.29,4.295 0,0 0,0" /></g></g><g
                 transform="matrix(2.1202555,0.2371008,0.2387971,-2.1354239,0,0)"
                 id="g212"><g
                   transform="translate(629.6631,-853.0599)"
                   id="g214"><path
                     id="path216"
                     style="fill:#231f20;fill-opacity:1;fill-rule:nonzero;stroke:none"
                     d="m 0,0 c 0,0 -4.245,-3.258 -7.107,-4.245 -2.864,-0.987 -14.02,-1.678 -17.08,-2.172 -3.06,-0.494 -10.563,-2.468 -12.834,-3.356 -2.271,-0.889 -12.044,-2.172 -12.044,-2.172 0,0 1.481,14.512 0,17.77 -1.481,3.258 -4.443,5.133 -4.443,5.133 0,0 12.538,21.72 22.706,24.089 10.169,2.37 12.736,-2.172 13.131,-3.258 0.395,-1.086 0.197,-2.863 0,-5.232 -0.198,-2.37 11.65,-9.577 14.315,-13.525 C -0.69,9.083 0,0 0,0" /></g></g><g
                 transform="matrix(2.1202555,0.2371008,0.2387971,-2.1354239,0,0)"
                 id="g218"><g
                   transform="translate(608.375,-815.7919)"
                   id="g220"><path
                     id="path222"
                     style="fill:#231f20;fill-opacity:1;fill-rule:nonzero;stroke:none"
                     d="m 0,0 c 0,0 -6.562,1.145 -8.804,0.664 -2.241,-0.48 -8.963,-3.841 -11.364,-6.723 -2.401,-2.88 -13.538,-19.321 -13.538,-19.321 0,0 -4.389,2.515 -5.19,3.475 -0.8,0.961 -27.371,-1.921 -34.414,13.125 0,0 -7.897,-2.915 -15.142,-2.781 0,0 -24.569,-0.854 -27.28,-4.426 -3.601,-4.743 -24.806,-16.531 -27.597,-19.741 -3.93,-4.519 -39.372,-14.389 -42.784,-17.395 -1.908,-1.68 -1.191,5.156 -7.994,1.543 -1.067,-0.566 -2.219,1.317 -2.997,0.809 -2.022,-1.318 0.683,-4.48 0.523,-4.97 -2.413,-7.395 -2.198,-5.171 -3.413,-9.514 -1.099,-3.93 -29.12,-6.527 -40.998,-7.647 -8.263,-0.78 -22.495,-1.619 -23.856,2.688 -0.667,2.108 1.442,11.567 3.459,13.808 0.62,0.69 3.95,1.9 5.83,0.607 1.943,-1.336 5.694,0.588 8.259,3.523 0.981,1.123 14.172,7.184 17.368,11.295 1.295,1.666 8.973,3.488 12.145,-0.364 1.076,-1.306 2.891,-2.206 4.352,-0.291 0.849,1.112 1.597,4.653 1.964,5.756 1.043,3.13 1.93,5.376 10.127,11.495 10.277,7.67 14.664,14.245 22.57,18.787 14.482,8.322 33.01,13.779 34.278,15.608 2.199,3.173 9.882,6.821 12.123,11.302 2.241,4.482 4.962,4.322 8.003,5.442 3.041,1.121 41.297,19.369 53.621,18.888 12.326,-0.48 54.102,-10.724 56.023,-13.605 1.921,-2.881 6.723,-16.967 8.003,-17.928 1.281,-0.96 2.881,-0.48 4.001,-2.24 C -1.601,10.108 1.44,6.858 0,0" /></g></g><g
                 transform="matrix(2.1202555,0.2371008,0.2387971,-2.1354239,0,0)"
                 id="g224"><g
                   transform="translate(610.2451,-808.1117)"
                   id="g226"><path
                     id="path228"
                     style="fill:#231f20;fill-opacity:1;fill-rule:nonzero;stroke:none"
                     d="m 0,0 c 0,0 0.207,-2.093 -2.371,4.65 -1.969,3.183 -3.803,1.645 -5.306,4.513 -1.503,2.867 -6.4,16.262 -8.358,18.11 -1.147,1.081 -4.402,1.873 -20.332,5.854 0,0 20.028,12.01 23.892,13.189 3.864,1.181 20.301,5.764 63.032,8.382 8.691,-1.237 25.575,15.407 27.203,20.583 1.628,5.176 28.63,17.74 57.978,18.09 4.754,0.201 -10.428,-0.96 -5.493,-0.815 4.935,0.144 5.329,-1.776 6.131,-1.13 0.802,0.646 -1.493,6.357 2.475,11.995 3.968,5.638 10.076,4.115 18.026,4.011 7.95,-0.106 40.467,3.339 44.615,1.934 4.149,-1.404 6.556,-4.855 6.412,-8.802 -0.142,-3.946 -1.378,-5.654 -3.134,-6.797 -1.757,-1.144 -2.409,-0.041 -3.693,-0.635 -1.285,-0.594 -15.473,-8.904 -19.722,-12.259 -4.248,-3.354 -12.078,-12.068 -16.088,-9.909 -0.885,0.678 -0.04,-2.981 -5.948,-0.823 -2.571,0.708 -2.931,2.418 -4.599,3.142 -1.669,0.725 -5.097,-1.291 -5.662,-3.408 -0.567,-2.117 0.523,-2.46 -0.723,-3.565 C 147.09,65.205 121.521,47.847 114.956,44.424 108.392,41 103.624,38.722 102.379,37.617 101.133,36.512 96.646,29.913 93.733,27.636 90.822,25.358 82.995,24.541 72.678,18.704 62.36,12.868 2.082,-1.553 0,0" /></g></g></g></g><text
             id="text234"
             style="font-variant:normal;font-weight:300;font-stretch:normal;font-size:144px;font-family:'GillSans Light';-inkscape-font-specification:GillSans-Light;writing-mode:lr-tb;fill:#000000;fill-opacity:1;fill-rule:nonzero;stroke:none"
             transform="matrix(1,0,0,-1,585.8218,2054.0547)"><tspan
               id="tspan230"
               y="0"
               x="0 115.2">20</tspan><tspan
               id="tspan232"
               y="1.4400001"
               x="656.35199 771.552">19</tspan></text>
<text
             id="text238"
             style="font-variant:normal;font-weight:normal;font-stretch:normal;font-size:261px;font-family:Silom;-inkscape-font-specification:Silom;writing-mode:lr-tb;fill:#ffffff;fill-opacity:1;fill-rule:nonzero;stroke:none"
             transform="matrix(0.82964713,0.55828813,0.55828813,-0.82964713,671.0864,2312.3438)"><tspan
               id="tspan236"
               y="0"
               x="0">D</tspan></text>
<text
             id="text242"
             style="font-variant:normal;font-weight:normal;font-stretch:normal;font-size:261px;font-family:Silom;-inkscape-font-specification:Silom;writing-mode:lr-tb;fill:#ffffff;fill-opacity:1;fill-rule:nonzero;stroke:none"
             transform="matrix(0.96815743,0.25034214,0.25034214,-0.96815743,808.5869,2406.0083)"><tspan
               id="tspan240"
               y="0"
               x="0">A</tspan></text>
<text
             id="text246"
             style="font-variant:normal;font-weight:normal;font-stretch:normal;font-size:260.99996948px;font-family:Silom;-inkscape-font-specification:Silom;writing-mode:lr-tb;fill:#ffffff;fill-opacity:1;fill-rule:nonzero;stroke:none"
             transform="matrix(0.99888785,-0.04714943,-0.04714943,-0.99888785,970.8286,2449.2246)"><tspan
               id="tspan244"
               y="0"
               x="0">N</tspan></text>
<text
             id="text250"
             style="font-variant:normal;font-weight:normal;font-stretch:normal;font-size:261.00003052px;font-family:Silom;-inkscape-font-specification:Silom;writing-mode:lr-tb;fill:#ffffff;fill-opacity:1;fill-rule:nonzero;stroke:none"
             transform="matrix(0.92915546,-0.36968923,-0.36968923,-0.92915546,1159.1401,2441.5371)"><tspan
               id="tspan248"
               y="0"
               x="0">C</tspan></text>
<text
             id="text254"
             style="font-variant:normal;font-weight:normal;font-stretch:normal;font-size:261.00003052px;font-family:Silom;-inkscape-font-specification:Silom;writing-mode:lr-tb;fill:#ffffff;fill-opacity:1;fill-rule:nonzero;stroke:none"
             transform="matrix(0.74051405,-0.67204088,-0.67204088,-0.74051405,1312.7632,2380.3018)"><tspan
               id="tspan252"
               y="0"
               x="0">E</tspan></text>
<text
             id="text258"
             style="font-variant:normal;font-weight:300;font-stretch:normal;font-size:67.00004578px;font-family:'GillSans Light';-inkscape-font-specification:GillSans-Light;writing-mode:lr-tb;fill:#000000;fill-opacity:1;fill-rule:nonzero;stroke:none"
             transform="matrix(0.94518439,-0.32653708,-0.32653708,-0.94518439,689.0388,1315.526)"><tspan
               id="tspan256"
               y="0"
               x="0">T</tspan></text>
<text
             id="text262"
             style="font-variant:normal;font-weight:300;font-stretch:normal;font-size:67px;font-family:'GillSans Light';-inkscape-font-specification:GillSans-Light;writing-mode:lr-tb;fill:#000000;fill-opacity:1;fill-rule:nonzero;stroke:none"
             transform="matrix(0.95358503,-0.30112387,-0.30112387,-0.95358503,725.0457,1303.0222)"><tspan
               id="tspan260"
               y="0"
               x="0">U</tspan></text>
<text
             id="text266"
             style="font-variant:normal;font-weight:300;font-stretch:normal;font-size:66.99999237px;font-family:'GillSans Light';-inkscape-font-specification:GillSans-Light;writing-mode:lr-tb;fill:#000000;fill-opacity:1;fill-rule:nonzero;stroke:none"
             transform="matrix(0.96612697,-0.25806719,-0.25806719,-0.96612697,787.0309,1283.8125)"><tspan
               id="tspan264"
               y="0"
               x="0">D</tspan></text>
<text
             id="text270"
             style="font-variant:normal;font-weight:300;font-stretch:normal;font-size:66.99998474px;font-family:'GillSans Light';-inkscape-font-specification:GillSans-Light;writing-mode:lr-tb;fill:#000000;fill-opacity:1;fill-rule:nonzero;stroke:none"
             transform="matrix(0.97484199,-0.22289706,-0.22289706,-0.97484199,834.5634,1271.1183)"><tspan
               id="tspan268"
               y="0"
               x="0">U</tspan></text>
<text
             id="text274"
             style="font-variant:normal;font-weight:300;font-stretch:normal;font-size:66.99995422px;font-family:'GillSans Light';-inkscape-font-specification:GillSans-Light;writing-mode:lr-tb;fill:#000000;fill-opacity:1;fill-rule:nonzero;stroke:none"
             transform="matrix(0.98199027,-0.18893148,-0.18893148,-0.98199027,879.8713,1260.8391)"><tspan
               id="tspan272"
               y="0"
               x="0">B</tspan></text>
<text
             id="text278"
             style="font-variant:normal;font-weight:300;font-stretch:normal;font-size:67.00000763px;font-family:'GillSans Light';-inkscape-font-specification:GillSans-Light;writing-mode:lr-tb;fill:#000000;fill-opacity:1;fill-rule:nonzero;stroke:none"
             transform="matrix(0.98764317,-0.15671939,-0.15671939,-0.98764317,915.6976,1253.9852)"><tspan
               id="tspan276"
               y="0"
               x="0">L</tspan></text>
<text
             id="text282"
             style="font-variant:normal;font-weight:300;font-stretch:normal;font-size:67.00004578px;font-family:'GillSans Light';-inkscape-font-specification:GillSans-Light;writing-mode:lr-tb;fill:#000000;fill-opacity:1;fill-rule:nonzero;stroke:none"
             transform="matrix(0.99117843,-0.13253424,-0.13253424,-0.99117843,947.4618,1249.0577)"><tspan
               id="tspan280"
               y="0"
               x="0">I</tspan></text>
<text
             id="text286"
             style="font-variant:normal;font-weight:300;font-stretch:normal;font-size:66.99995422px;font-family:'GillSans Light';-inkscape-font-specification:GillSans-Light;writing-mode:lr-tb;fill:#000000;fill-opacity:1;fill-rule:nonzero;stroke:none"
             transform="matrix(0.99561409,-0.09355529,-0.09355529,-0.99561409,962.3176,1246.7064)"><tspan
               id="tspan284"
               y="0"
               x="0">N</tspan></text>
<text
             id="text290"
             style="font-variant:normal;font-weight:300;font-stretch:normal;font-size:66.99999237px;font-family:'GillSans Light';-inkscape-font-specification:GillSans-Light;writing-mode:lr-tb;fill:#000000;fill-opacity:1;fill-rule:nonzero;stroke:none"
             transform="matrix(0.99999709,0.00241194,0.00241194,-0.99999709,1035.082,1240.989)"><tspan
               id="tspan288"
               y="0"
               x="0">C</tspan></text>
<text
             id="text294"
             style="font-variant:normal;font-weight:300;font-stretch:normal;font-size:66.99996185px;font-family:'GillSans Light';-inkscape-font-specification:GillSans-Light;writing-mode:lr-tb;fill:#000000;fill-opacity:1;fill-rule:nonzero;stroke:none"
             transform="matrix(0.99949904,0.03164927,0.03164927,-0.99949904,1081.0728,1241.3335)"><tspan
               id="tspan292"
               y="0"
               x="0">I</tspan></text>
<text
             id="text298"
             style="font-variant:normal;font-weight:300;font-stretch:normal;font-size:67px;font-family:'GillSans Light';-inkscape-font-specification:GillSans-Light;writing-mode:lr-tb;fill:#000000;fill-opacity:1;fill-rule:nonzero;stroke:none"
             transform="matrix(0.99833733,0.05764179,0.05764179,-0.99833733,1095.7534,1241.6483)"><tspan
               id="tspan296"
               y="0"
               x="0">T</tspan></text>
<text
             id="text302"
             style="font-variant:normal;font-weight:300;font-stretch:normal;font-size:66.99996948px;font-family:'GillSans Light';-inkscape-font-specification:GillSans-Light;writing-mode:lr-tb;fill:#000000;fill-opacity:1;fill-rule:nonzero;stroke:none"
             transform="matrix(0.99546016,0.09517915,0.09517915,-0.99546016,1135.1626,1243.9404)"><tspan
               id="tspan300"
               y="0"
               x="0">Y</tspan></text>
<text
             id="text306"
             style="font-variant:normal;font-weight:300;font-stretch:normal;font-size:67.00003815px;font-family:'GillSans Light';-inkscape-font-specification:GillSans-Light;writing-mode:lr-tb;fill:#000000;fill-opacity:1;fill-rule:nonzero;stroke:none"
             transform="matrix(0.98836214,0.15211932,0.15211932,-0.98836214,1194.1605,1250.0846)"><tspan
               id="tspan304"
               y="0"
               x="0">C</tspan></text>
<text
             id="text310"
             style="font-variant:normal;font-weight:300;font-stretch:normal;font-size:67.00000763px;font-family:'GillSans Light';-inkscape-font-specification:GillSans-Light;writing-mode:lr-tb;fill:#000000;fill-opacity:1;fill-rule:nonzero;stroke:none"
             transform="matrix(0.98068198,0.19560893,0.19560893,-0.98068198,1243.084,1257.7177)"><tspan
               id="tspan308"
               y="0"
               x="0">A</tspan></text>
<text
             id="text314"
             style="font-variant:normal;font-weight:300;font-stretch:normal;font-size:67.00001526px;font-family:'GillSans Light';-inkscape-font-specification:GillSans-Light;writing-mode:lr-tb;fill:#000000;fill-opacity:1;fill-rule:nonzero;stroke:none"
             transform="matrix(0.97123261,0.23813278,0.23813278,-0.97123261,1287.2405,1266.4471)"><tspan
               id="tspan312"
               y="0"
               x="0">M</tspan></text>
<text
             id="text318"
             style="font-variant:normal;font-weight:300;font-stretch:normal;font-size:66.99997711px;font-family:'GillSans Light';-inkscape-font-specification:GillSans-Light;writing-mode:lr-tb;fill:#000000;fill-opacity:1;fill-rule:nonzero;stroke:none"
             transform="matrix(0.96086,0.27703441,0.27703441,-0.96086,1339.1097,1279.3726)"><tspan
               id="tspan316"
               y="0"
               x="0">P</tspan></text>
<text
             id="text322"
             style="font-variant:normal;font-weight:300;font-stretch:normal;font-size:66.99999237px;font-family:'GillSans Light';-inkscape-font-specification:GillSans-Light;writing-mode:lr-tb;fill:#000000;fill-opacity:1;fill-rule:nonzero;stroke:none"
             transform="matrix(0.94908522,0.31501945,0.31501945,-0.94908522,1373.0474,1289.0382)"><tspan
               id="tspan320"
               y="0"
               x="0">U</tspan></text>
<text
             id="text326"
             style="font-variant:normal;font-weight:300;font-stretch:normal;font-size:66.99996948px;font-family:'GillSans Light';-inkscape-font-specification:GillSans-Light;writing-mode:lr-tb;fill:#000000;fill-opacity:1;fill-rule:nonzero;stroke:none"
             transform="matrix(0.93428102,0.35653748,0.35653748,-0.93428102,1418.5615,1304.3209)"><tspan
               id="tspan324"
               y="0"
               x="0">S</tspan></text>
</g></g></g></g></svg>