<?xml version="1.0" standalone="no"?>
<!DOCTYPE svg PUBLIC "-//W3C//DTD SVG 20010904//EN"
 "http://www.w3.org/TR/2001/REC-SVG-20010904/DTD/svg10.dtd">
<svg version="1.0" xmlns="http://www.w3.org/2000/svg"
 width="1440.000000pt" height="1440.000000pt" viewBox="0 0 1440.000000 1440.000000"
 preserveAspectRatio="xMidYMid meet">
<metadata>
Created by potrace 1.15, written by Peter Selinger 2001-2017
</metadata>
<g transform="translate(0.000000,1440.000000) scale(0.100000,-0.100000)"
fill="#000000" stroke="none">
<path d="M0 7200 l0 -7200 7200 0 7200 0 0 7200 0 7200 -7200 0 -7200 0 0
-7200z m14380 0 l0 -7180 -7180 0 -7180 0 0 7180 0 7180 7180 0 7180 0 0
-7180z"/>
<path d="M6795 11589 c-637 -18 -1446 -94 -1970 -185 l-91 -16 -12 -136 c-50
-565 -350 -962 -873 -1156 -52 -19 -137 -43 -187 -53 -50 -11 -94 -21 -96 -24
-3 -3 1 -95 9 -205 7 -109 19 -287 25 -394 55 -997 83 -1357 141 -1820 64
-512 152 -860 323 -1285 63 -155 251 -543 315 -646 51 -85 52 -91 16 -96 -16
-2 -97 -13 -180 -24 -82 -11 -158 -21 -168 -22 -10 -1 -25 10 -35 28 -9 17
-29 51 -44 78 -16 26 -28 49 -28 52 0 2 51 6 114 7 l113 3 -29 53 -30 52 -123
0 -123 0 -36 49 c-20 27 -70 80 -111 119 -69 64 -77 77 -113 168 -102 257
-182 519 -184 605 0 37 7 59 35 105 109 179 113 393 12 595 -43 86 -77 136
-171 254 -170 213 -237 361 -236 520 0 100 22 166 94 277 l53 83 4 108 c2 60
-2 158 -8 218 -11 106 -11 112 14 192 37 116 62 275 75 472 6 94 15 238 21
320 6 83 10 164 9 180 -1 17 -2 158 -1 315 1 281 13 499 31 546 13 33 54 32
164 -7 87 -30 131 -34 131 -12 0 6 -46 61 -103 122 -118 127 -105 122 -258 90
-70 -15 -119 -19 -166 -16 -67 6 -68 5 -68 -19 0 -28 37 -48 74 -38 15 3 29
-1 40 -11 37 -38 37 -49 2 -192 -19 -76 -57 -253 -85 -393 -28 -140 -56 -277
-62 -305 -6 -27 -14 -122 -19 -210 -8 -141 -13 -168 -36 -220 -96 -217 -144
-380 -144 -490 0 -98 -34 -149 -242 -368 -148 -156 -228 -252 -261 -312 -20
-37 -22 -56 -25 -267 -4 -262 -9 -244 99 -363 98 -109 206 -250 234 -305 12
-25 35 -90 50 -145 29 -107 44 -141 84 -194 25 -33 26 -36 23 -180 -8 -376
104 -718 361 -1102 56 -85 106 -160 111 -167 6 -10 -87 -12 -471 -12 -263 0
-486 0 -495 0 -26 0 -22 -10 25 -61 47 -51 244 -270 354 -393 40 -45 72 -85
72 -91 0 -5 -29 -41 -66 -80 -130 -137 -248 -261 -341 -358 -52 -54 -91 -101
-87 -105 4 -4 199 -9 433 -12 l427 -5 3 -292 c2 -227 5 -291 15 -288 15 6 554
97 737 125 318 49 393 60 405 60 13 0 26 -30 86 -193 46 -129 52 -140 97 -196
77 -95 170 -131 206 -79 23 33 21 48 -29 167 -53 130 -70 218 -54 290 6 28 14
53 19 56 5 3 111 19 237 36 125 16 291 38 368 49 76 10 145 16 151 12 7 -4 32
-25 56 -47 231 -216 642 -516 949 -693 236 -136 588 -302 779 -367 l70 -24
112 39 c263 89 455 174 705 312 343 189 690 443 969 709 l60 58 110 -14 c60
-8 161 -21 224 -30 121 -16 413 -55 418 -55 5 0 24 -57 32 -99 12 -67 -4 -148
-54 -272 -25 -62 -46 -120 -46 -130 0 -29 39 -69 69 -69 34 0 107 51 155 109
48 57 48 58 100 203 77 214 75 209 110 203 17 -2 135 -21 261 -40 127 -19 374
-60 550 -89 176 -30 323 -52 328 -49 4 2 7 137 7 300 l0 295 540 -7 c297 -4
540 -5 540 -1 0 6 -111 138 -245 291 -29 33 -65 76 -81 95 -28 34 -40 47 -118
135 -72 82 -87 55 183 321 132 131 241 241 241 245 0 3 -270 10 -600 14 -330
4 -600 10 -600 14 0 4 27 47 61 97 201 293 299 511 361 795 18 86 22 139 24
302 2 183 3 200 22 220 32 35 58 95 92 212 43 149 95 231 277 431 45 50 87
103 93 118 6 16 10 119 10 241 l0 214 -35 67 c-41 79 -90 139 -242 294 -121
124 -204 223 -230 273 -9 18 -20 73 -24 125 -10 117 -35 209 -100 364 -68 164
-67 161 -78 333 -6 83 -22 209 -35 280 -53 278 -107 531 -137 646 l-31 119 22
30 c16 22 29 30 53 30 60 0 77 10 77 42 0 27 -3 30 -22 23 -55 -18 -108 -16
-208 9 -58 14 -115 26 -127 26 -14 0 -49 -28 -101 -82 -92 -96 -142 -153 -142
-162 0 -15 74 -4 156 24 98 34 130 33 144 -6 26 -68 52 -736 31 -811 -8 -29
-8 -55 -1 -87 5 -24 12 -114 16 -198 13 -355 44 -601 94 -754 18 -54 19 -70
10 -150 -13 -120 -13 -303 2 -345 6 -19 27 -55 45 -80 97 -136 119 -270 71
-434 -36 -124 -86 -207 -232 -390 -187 -232 -253 -426 -215 -630 11 -63 54
-166 88 -214 48 -67 13 -228 -130 -608 l-63 -168 -104 -103 -103 -104 -102 2
c-56 1 -110 2 -119 1 -17 -1 -68 -76 -68 -99 0 -8 36 -12 109 -14 l109 -3 -53
-95 c-30 -52 -58 -101 -63 -109 -6 -12 -31 -10 -152 12 -80 15 -171 30 -202
33 -32 4 -58 11 -58 16 0 5 45 84 101 176 125 208 311 583 377 762 227 611
376 1797 399 3167 l6 371 -44 11 c-398 98 -693 304 -888 618 -115 186 -187
414 -216 684 l-6 56 -82 17 c-193 38 -689 105 -967 130 -616 57 -1189 74
-1845 55z m1325 -283 c422 -29 593 -47 940 -96 238 -34 425 -66 440 -75 5 -3
10 -30 10 -58 0 -188 99 -482 227 -676 68 -103 222 -259 319 -323 141 -92 355
-184 477 -204 20 -4 40 -10 42 -15 7 -10 -12 -754 -25 -994 -51 -947 -165
-1745 -315 -2200 -62 -190 -209 -503 -346 -740 l-64 -110 -43 -3 -42 -3 0 -62
c0 -51 -5 -70 -31 -112 l-31 -51 -132 17 c-1345 182 -2573 210 -4021 94 -170
-14 -429 -38 -575 -54 -316 -35 -302 -38 -310 82 l-5 72 -38 3 c-33 3 -41 9
-67 55 -87 149 -236 466 -302 642 -209 557 -270 907 -358 2080 -5 72 -14 222
-20 335 -6 113 -20 354 -31 535 -11 182 -20 350 -22 374 -2 45 -2 45 38 53
166 36 286 78 405 141 213 112 401 301 505 507 68 133 121 345 132 522 3 54 9
98 13 98 3 0 71 11 151 24 419 70 1108 135 1699 160 217 9 1168 -4 1380 -18z
m-4944 -5613 l179 -6 44 -56 c60 -77 91 -100 147 -110 46 -9 78 -34 71 -56 -2
-5 -35 -15 -73 -21 -66 -11 -141 -24 -339 -62 l-90 -17 -3 -273 -2 -272 -299
0 c-164 1 -301 4 -305 7 -7 7 25 43 228 257 89 92 162 172 164 176 1 4 -83
102 -188 218 -104 116 -190 214 -190 217 0 7 441 6 656 -2z m8921 -18 c2 -1
-80 -84 -182 -185 -102 -102 -185 -187 -185 -190 0 -4 187 -226 372 -440 l38
-45 -407 -3 c-225 -1 -414 0 -420 3 -10 3 -13 58 -13 228 l0 223 -152 36 c-84
20 -200 47 -258 59 -58 13 -109 26 -113 29 -4 4 0 23 9 43 15 31 23 36 64 42
59 8 100 41 175 140 l57 76 506 -7 c279 -4 508 -8 509 -9z m-4282 -35 c333
-15 572 -29 760 -45 634 -54 1355 -154 1945 -270 199 -39 619 -131 651 -143
19 -8 20 -18 19 -472 0 -255 -2 -466 -5 -468 -2 -3 -129 16 -282 42 -153 25
-339 55 -413 66 -74 11 -162 25 -195 30 -345 54 -1147 162 -1495 200 -107 11
-251 27 -320 35 -417 49 -1206 91 -1525 81 -353 -11 -900 -47 -1160 -76 -49
-5 -193 -21 -320 -35 -569 -63 -1508 -197 -2100 -301 -77 -13 -143 -24 -147
-24 -5 0 -7 228 -6 507 l3 508 210 37 c1017 182 2140 299 3205 331 241 8 983
6 1175 -3z m-191 -1071 c328 -15 1070 -85 1064 -99 -4 -10 -157 -134 -248
-201 -164 -121 -305 -212 -480 -312 -259 -148 -751 -349 -802 -328 -13 5 -61
24 -108 41 -399 148 -906 441 -1281 740 l-99 79 32 5 c98 16 671 64 888 75
248 12 784 12 1034 0z"/>
<path d="M6317 11084 c-21 -20 -37 -39 -35 -44 2 -5 223 -230 492 -500 l490
-492 -457 -456 c-251 -251 -460 -460 -464 -465 -8 -8 55 -77 71 -77 6 0 126
115 266 255 l255 255 89 -89 90 -90 -23 -126 c-13 -69 -21 -129 -18 -131 3 -3
53 20 111 50 58 31 113 56 121 56 14 0 47 -17 193 -96 l42 -24 0 23 c-1 12 -9
72 -19 132 l-19 110 94 88 c52 49 94 92 94 96 0 5 -25 11 -56 15 -31 3 -89 11
-129 17 l-73 11 -58 119 c-32 66 -61 116 -65 112 -4 -5 -32 -58 -63 -119 l-56
-111 -100 -12 c-56 -6 -108 -11 -118 -11 -10 0 62 79 173 190 104 105 194 190
198 190 5 0 213 -205 462 -455 250 -250 457 -455 462 -455 4 0 25 17 46 37
l39 36 -464 464 -463 463 495 495 495 495 -40 40 -40 40 -495 -495 -495 -495
-495 495 -495 494 -38 -35z"/>
<path d="M7300 10755 l0 -335 50 0 50 0 0 335 0 335 -50 0 -50 0 0 -335z"/>
<path d="M6250 10055 l0 -337 188 4 c182 3 189 4 240 31 120 63 182 166 182
305 0 97 -34 176 -104 240 -75 70 -130 85 -333 90 l-173 4 0 -337z m385 210
c45 -23 66 -42 89 -79 63 -101 40 -254 -48 -321 -56 -43 -101 -54 -218 -55
l-108 0 0 246 0 246 113 -4 c103 -3 119 -6 172 -33z"/>
<path d="M7784 10356 c-3 -7 -3 -26 -1 -42 l4 -29 111 -3 112 -3 0 -289 0
-290 50 0 50 0 2 288 3 287 115 5 115 5 3 43 3 42 -281 0 c-227 0 -282 -3
-286 -14z"/>
<path d="M8358 8170 c-316 -54 -483 -283 -465 -640 10 -186 52 -298 156 -411
69 -76 131 -112 238 -140 93 -24 285 -29 378 -9 166 34 288 141 350 305 14 36
25 71 25 78 0 12 -252 95 -303 100 -13 2 -23 -12 -36 -50 -41 -120 -103 -168
-216 -168 -164 1 -234 117 -222 365 7 146 37 218 112 269 53 35 156 41 214 11
51 -25 86 -62 103 -107 7 -18 19 -33 28 -33 8 0 71 14 140 30 69 16 133 30
142 30 31 0 30 21 -6 96 -45 95 -139 193 -221 230 -100 46 -287 66 -417 44z"/>
<path d="M4260 7570 l0 -590 319 0 c357 0 421 8 522 61 122 65 217 207 240
359 15 96 6 315 -16 395 -38 136 -129 256 -235 308 -98 48 -180 57 -521 57
l-309 0 0 -590z m583 299 c92 -30 129 -106 135 -275 5 -138 -7 -211 -43 -266
-38 -58 -74 -71 -197 -76 l-108 -4 0 322 0 323 88 -6 c48 -3 104 -11 125 -18z"/>
<path d="M5725 8148 c-2 -7 -61 -164 -130 -348 -165 -435 -305 -811 -305 -816
0 -2 86 -4 190 -4 141 0 190 3 190 12 0 7 11 49 25 95 l26 83 206 -2 206 -3
26 -90 27 -90 192 -5 c106 -3 192 -1 192 3 0 8 -132 365 -241 652 -27 72 -82
218 -123 325 l-73 195 -202 3 c-156 2 -202 0 -206 -10z m229 -390 c10 -35 35
-119 57 -188 21 -69 39 -129 39 -133 0 -4 -56 -7 -125 -7 -95 0 -123 3 -120
13 2 6 18 59 35 117 68 225 83 269 90 265 4 -2 15 -33 24 -67z"/>
<path d="M6630 7568 l0 -593 172 3 173 3 -3 317 c-2 272 -1 315 11 302 8 -8
48 -64 89 -125 41 -60 124 -182 183 -270 60 -88 118 -174 130 -192 l20 -32
178 -1 177 0 0 590 0 590 -175 0 -175 0 0 -322 0 -322 -96 139 c-52 77 -150
222 -217 322 l-122 182 -172 1 -173 0 0 -592z"/>
<path d="M9150 7570 l0 -590 500 0 500 0 0 135 0 135 -315 0 -316 0 3 113 3
112 280 0 280 0 3 123 3 122 -286 0 -285 0 0 90 0 90 305 0 305 0 0 130 0 130
-490 0 -490 0 0 -590z"/>
<path d="M7257 5524 c-4 -4 -7 -137 -7 -296 l0 -288 54 0 54 0 7 243 c4 133 5
265 3 292 l-3 50 -50 3 c-28 2 -54 0 -58 -4z"/>
<path d="M6585 5510 c-148 -36 -234 -134 -243 -276 -6 -99 17 -163 83 -229 70
-70 126 -89 253 -83 77 4 109 10 155 31 l57 26 0 45 c0 25 -4 47 -9 51 -5 3
-24 -3 -43 -14 -40 -23 -132 -51 -169 -51 -15 0 -50 7 -78 17 -118 38 -173
173 -116 284 57 110 208 140 368 74 15 -6 17 -1 17 43 0 45 -3 51 -27 60 -80
31 -178 40 -248 22z"/>
<path d="M7790 5469 c0 -24 -7 -153 -17 -287 -13 -196 -14 -245 -4 -251 7 -5
67 -11 134 -15 67 -4 148 -9 180 -13 l57 -6 0 46 0 45 -117 7 c-65 3 -124 7
-132 8 -11 2 -14 19 -12 82 1 43 4 82 6 85 2 3 58 1 125 -4 66 -4 123 -7 125
-5 1 2 5 22 7 44 l3 40 -125 8 c-68 5 -126 10 -128 11 -2 2 1 37 5 77 l8 74
65 -2 c36 -2 95 -5 133 -9 l67 -5 0 44 0 44 -77 6 c-43 4 -129 9 -190 13
l-113 7 0 -44z"/>
<path d="M8526 5427 c-15 -58 -11 -63 72 -75 42 -7 87 -12 100 -12 28 0 29 3
-8 -270 -17 -123 -27 -227 -23 -231 5 -4 28 -9 52 -10 55 -4 49 -22 86 261 16
118 31 218 34 222 3 3 49 0 101 -7 52 -8 98 -11 102 -9 4 3 8 22 8 44 l0 38
-52 7 c-45 5 -137 18 -429 60 -32 4 -38 2 -43 -18z"/>
<path d="M5607 5430 c-114 -20 -219 -102 -251 -197 -20 -60 -20 -147 0 -206
22 -64 91 -139 156 -168 74 -33 211 -33 281 -1 143 64 213 195 183 340 -33
162 -193 262 -369 232z m120 -102 c114 -28 176 -171 124 -283 -35 -75 -102
-115 -194 -115 -134 0 -226 114 -199 248 25 123 135 184 269 150z"/>
<path d="M9370 5327 c0 -2 35 -78 79 -169 l78 -164 -27 -140 -27 -139 41 -13
c22 -7 47 -11 55 -10 10 2 23 47 41 142 l27 139 59 54 c33 29 94 83 136 120
42 38 73 71 70 75 -4 4 -34 10 -67 13 l-60 7 -80 -76 c-44 -41 -84 -75 -90
-75 -5 -1 -30 44 -54 99 -24 55 -49 104 -55 109 -6 5 -29 11 -51 15 -22 4 -48
9 -57 12 -10 3 -18 3 -18 1z"/>
<path d="M4695 5295 c-100 -39 -143 -138 -96 -225 26 -49 67 -74 181 -110 103
-32 120 -45 120 -94 0 -62 -107 -86 -210 -47 l-50 19 1 -21 c3 -60 14 -80 49
-93 19 -7 60 -13 90 -13 142 -2 230 65 230 175 0 96 -59 151 -203 189 -79 20
-117 47 -117 80 0 67 113 92 225 49 16 -7 17 -3 13 40 -3 26 -9 50 -12 53 -14
15 -181 13 -221 -2z"/>
<path d="M2755 9739 c-22 -12 -71 -48 -108 -80 -49 -43 -76 -59 -97 -59 -16 0
-31 -3 -33 -7 -2 -5 0 -36 6 -70 9 -52 8 -68 -7 -107 -10 -26 -29 -54 -42 -63
-54 -35 -16 -143 50 -143 52 0 134 -29 151 -53 19 -27 19 -97 1 -142 -25 -59
-2 -39 61 53 l60 87 6 105 c5 111 31 218 88 358 37 94 37 106 -5 126 -46 22
-84 20 -131 -5z"/>
<path d="M11520 9703 c-19 -10 -36 -26 -38 -35 -2 -10 13 -58 33 -108 54 -135
85 -268 85 -364 l0 -82 61 -86 c70 -102 84 -114 64 -57 -43 121 -1 179 140
195 42 5 58 12 70 30 25 39 19 86 -15 119 -49 47 -61 119 -34 211 5 18 0 23
-40 33 -31 8 -64 28 -106 65 -96 86 -161 109 -220 79z"/>
<path d="M1790 7629 c-40 -16 -59 -39 -97 -114 -54 -108 -43 -167 68 -347 103
-167 221 -312 394 -483 114 -112 183 -189 203 -225 35 -63 61 -89 148 -149 35
-24 97 -84 144 -139 107 -126 126 -140 207 -157 93 -19 215 -28 231 -17 20 13
-8 62 -117 207 -72 95 -96 136 -117 197 -32 98 -55 128 -98 128 -52 0 -117 27
-167 69 -38 33 -56 62 -104 168 -92 201 -174 324 -295 440 l-45 44 33 -12 c56
-19 128 -95 201 -212 38 -62 82 -124 98 -139 46 -44 135 -79 216 -85 l72 -6
-2 204 c0 112 -1 211 -2 219 -1 8 -11 20 -23 25 -13 6 -35 34 -51 64 -15 30
-37 66 -50 79 -31 33 -137 95 -227 132 -204 84 -536 142 -620 109z"/>
<path d="M12294 7565 c-138 -28 -286 -76 -384 -125 -78 -39 -180 -113 -180
-130 0 -27 -45 -103 -66 -111 -13 -4 -24 -16 -25 -26 -1 -10 -2 -107 -3 -217
l-1 -198 80 4 c142 7 203 52 315 233 71 114 101 148 160 184 63 38 59 22 -14
-51 -102 -104 -201 -260 -267 -418 -58 -141 -124 -201 -245 -220 -67 -11 -83
-29 -114 -124 -20 -64 -81 -165 -132 -220 -32 -35 -118 -167 -118 -182 0 -30
246 -7 317 30 16 8 71 62 121 120 51 58 118 124 150 147 86 63 128 106 167
174 25 42 72 94 151 166 181 165 390 429 480 606 58 113 69 187 35 233 -11 16
-21 34 -21 40 0 25 -32 69 -63 89 -47 29 -191 28 -343 -4z"/>
</g>
</svg>
